<svg width="21" height="16" viewBox="0 0 21 16" fill="none" xmlns="http://www.w3.org/2000/svg">
<path d="M0 1C0 0.44771 0.44772 0 1 0H20C20.5523 0 21 0.44771 21 1C21 1.55229 20.5523 2 20 2H1C0.44772 2 0 1.55229 0 1Z" fill="black"/>
<path d="M0 7.9998C0 7.4475 0.44772 6.9997 1 6.9997L12 7C12.5523 7 13 7.4477 13 8C13 8.5523 12.5523 9 12 9L1 8.9998C0.44772 8.9998 0 8.552 0 7.9998Z" fill="black"/>
<path d="M1 13.9998C0.44772 13.9998 0 14.4475 0 14.9998C0 15.552 0.44772 15.9997 1 15.9997H18C18.5523 15.9997 19 15.552 19 14.9998C19 14.4475 18.5523 13.9998 18 13.9998H1Z" fill="black"/>
</svg>
