<svg width="28" height="29" viewBox="0 0 28 29" fill="none" xmlns="http://www.w3.org/2000/svg">
<path d="M27.0538 5.51675L18.57 14.0015L27.0538 22.4858C28.3157 23.7482 28.3157 25.7931 27.0538 27.0555C26.4233 27.6861 25.5966 28.0016 24.7704 28.0016C23.9427 28.0016 23.116 27.6866 22.486 27.0555L14.0003 18.5703L5.51524 27.0555C4.8848 27.686 4.05807 28.0015 3.23109 28.0015C2.40435 28.0015 1.57818 27.6865 0.947173 27.0555C-0.314756 25.7936 -0.314756 23.7486 0.947173 22.4857L9.43077 14.0014L0.946691 5.51675C-0.315238 4.25483 -0.315238 2.20941 0.946691 0.947478C2.20838 -0.313486 4.25259 -0.313486 5.51476 0.947478L14.0002 9.4322L22.485 0.947478C23.7474 -0.313486 25.7919 -0.313486 27.0533 0.947478C28.3157 2.20941 28.3157 4.25483 27.0538 5.51675Z" fill="#000"/>
</svg>
